<svg xmlns="http://www.w3.org/2000/svg" xmlns:xlink="http://www.w3.org/1999/xlink" id="Layer_1" width="16" height="16" x="0" y="0" enable-background="new 0 0 16 16" version="1.1" viewBox="0 0 16 16" xml:space="preserve"><path fill="#FFF" d="M6.499,1.985C3.461,1.985,1,4.449,1,7.484c0,3.039,2.461,5.5,5.499,5.5c3.037,0,5.498-2.461,5.498-5.5	C11.996,4.449,9.535,1.985,6.499,1.985z M6.499,11.885c-2.429,0-4.399-1.97-4.399-4.401c0-2.429,1.97-4.399,4.399-4.399	c2.429,0,4.399,1.97,4.399,4.399C10.897,9.915,8.928,11.885,6.499,11.885z M13.828,13.746c0,1.179,0.109,1.067-1.069,1.067	l-1.678-1.678c0-1.177-0.109-1.067,1.069-1.067L13.828,13.746z"/></svg>