<svg xmlns="http://www.w3.org/2000/svg" xmlns:xlink="http://www.w3.org/1999/xlink" id="Layer_1" width="24" height="24" x="0" y="0" enable-background="new -4 -4 24 24" version="1.1" viewBox="-4 -4 24 24" xml:space="preserve"><path fill="#010101" d="M5-4C0.028-4-4,0.031-4,5c0,4.971,4.028,9,9,9c4.97,0,9-4.029,9-9C14,0.031,9.97-4,5-4z M5,12.2	c-3.976,0-7.2-3.224-7.2-7.2c0-3.976,3.224-7.2,7.2-7.2c3.977,0,7.2,3.224,7.2,7.2C12.2,8.977,8.977,12.2,5,12.2z M19.995,18.248	c0,1.929,0.182,1.747-1.747,1.747l-5.244-5.243c0-1.929-0.181-1.748,1.748-1.748L19.995,18.248z"/></svg>